<svg width="86" height="85" viewBox="0 0 86 85" fill="none" xmlns="http://www.w3.org/2000/svg">
<path d="M40.1745 59.8369L25.1695 44.0257C24.9721 43.8177 24.8654 43.5398 24.8729 43.2532C24.8804 42.9666 25.0015 42.6947 25.2095 42.4973L49.7578 19.2005C49.7861 19.1737 49.8143 19.1469 49.8425 19.1201C54.7308 15.3947 61.1428 14.4337 69.443 16.1817C69.6574 16.227 69.853 16.3364 70.0038 16.4953C70.1547 16.6543 70.2536 16.8553 70.2876 17.0718C71.6068 25.4584 70.3074 31.8081 66.3254 36.4933C66.3008 36.5226 66.2746 36.5505 66.2468 36.5768L41.6992 59.8729C41.4919 60.0696 41.2151 60.1763 40.9294 60.1695C40.6437 60.1628 40.3723 60.0432 40.1745 59.8369ZM27.482 43.3215L40.9987 57.5643L64.7206 35.0519C68.1785 30.9609 69.312 25.575 68.2695 18.1553C60.9152 16.7303 55.4774 17.5806 51.2061 20.8129L27.482 43.3215Z" fill="white"/>
<path d="M19.7153 41.5232C19.6125 41.415 19.5332 41.2867 19.4823 41.1464C19.4315 41.0061 19.4103 40.8568 19.42 40.7079L19.565 38.5552C19.6976 36.3622 20.4596 34.2538 21.7596 32.4827C23.0596 30.7115 24.8427 29.3527 26.8952 28.5688L27.0272 28.5195C31.4229 26.8985 36.2744 27.0355 40.5715 28.9021C40.7268 28.9799 40.861 29.094 40.9628 29.2347C41.0646 29.3753 41.1311 29.5384 41.1565 29.7102C41.182 29.882 41.1656 30.0574 41.109 30.2215C41.0523 30.3856 40.9569 30.5337 40.8308 30.6532L29.7984 41.1232C29.6652 41.2494 29.5022 41.3396 29.3245 41.3854C29.1468 41.4312 28.9605 41.431 28.7829 41.3849C26.1651 40.7836 23.4316 40.9237 20.889 41.7894C20.7194 41.854 20.5363 41.8749 20.3566 41.8502C20.1768 41.8254 20.0062 41.7558 19.8604 41.6478C19.8085 41.6104 19.76 41.5688 19.7153 41.5232ZM27.2716 29.5827L27.6481 30.5951C25.9857 31.2334 24.5426 32.3375 23.4916 33.775C22.4406 35.2126 21.8263 36.9227 21.7223 38.7004L21.6812 39.3057C23.9931 38.7443 26.3994 38.6922 28.7335 39.153L38.087 30.2763C34.7054 29.2636 31.0885 29.3597 27.7655 30.5508L27.2716 29.5827Z" fill="white"/>
<path d="M42.3952 65.4215C42.3513 65.3752 42.3114 65.3253 42.276 65.2723C42.1757 65.1211 42.1151 64.947 42.0998 64.7662C42.0845 64.5854 42.1149 64.4036 42.1883 64.2377C43.1858 61.7438 43.4686 59.0213 43.005 56.3757C42.9682 56.196 42.9778 56.0099 43.0328 55.8348C43.0878 55.6598 43.1864 55.5017 43.3194 55.3753L54.3542 44.9031C54.4801 44.7835 54.633 44.696 54.7999 44.6479C54.9667 44.5999 55.1427 44.5928 55.3129 44.6272C55.4831 44.6615 55.6426 44.7364 55.7777 44.8455C55.9129 44.9545 56.0198 45.0945 56.0894 45.2536C57.7287 49.6424 57.6119 54.4945 55.7633 58.7994L55.7072 58.9287C54.8171 60.9374 53.3669 62.6469 51.5302 63.8526C49.6935 65.0583 47.5482 65.7089 45.3512 65.7267L43.1939 65.759C43.0447 65.7609 42.8967 65.7319 42.7592 65.6738C42.6217 65.6157 42.4978 65.5298 42.3952 65.4215ZM45.2336 56.5396C45.5717 58.8945 45.3939 61.2948 44.7124 63.5742L45.319 63.5648C47.0991 63.5536 48.8383 63.0297 50.3283 62.0557C51.8183 61.0818 52.9961 59.699 53.7207 58.073L54.7609 58.3839L53.7656 57.9633C55.1287 54.7072 55.4139 51.1002 54.5793 47.6703L45.2336 56.5396Z" fill="white"/>
<path d="M54.2158 31.4927C53.4404 30.6759 52.9246 29.6476 52.7336 28.5376C52.5427 27.4277 52.6852 26.2861 53.1431 25.2572C53.601 24.2282 54.3537 23.3582 55.3061 22.7571C56.2585 22.156 57.3678 21.8508 58.4936 21.8802C59.6194 21.9095 60.7113 22.272 61.6311 22.9219C62.5509 23.5719 63.2573 24.4799 63.6609 25.5313C64.0646 26.5827 64.1475 27.7302 63.899 28.8287C63.6505 29.9271 63.0818 30.9272 62.2649 31.7025C61.1688 32.7403 59.7059 33.301 58.197 33.2617C56.688 33.2224 55.2563 32.5862 54.2158 31.4927ZM60.9071 25.1425C60.4263 24.6356 59.806 24.2827 59.1246 24.1284C58.4433 23.974 57.7314 24.0253 57.0792 24.2756C56.4269 24.5258 55.8635 24.9639 55.4603 25.5345C55.057 26.105 54.832 26.7823 54.8138 27.4807C54.7955 28.1791 54.9848 28.8672 55.3576 29.458C55.7305 30.0488 56.2702 30.5158 56.9085 30.7998C57.5468 31.0839 58.255 31.1722 58.9435 31.0537C59.632 30.9352 60.2699 30.6152 60.7765 30.1341C61.4547 29.4889 61.8493 28.6011 61.8738 27.6653C61.8983 26.7296 61.5506 25.8223 60.9071 25.1425Z" fill="white"/>
<path d="M36.1626 62.1017L22.698 47.9137C22.5006 47.7058 22.3939 47.4279 22.4014 47.1413C22.4089 46.8547 22.53 46.5828 22.7379 46.3854L25.9797 43.3089C26.1877 43.1115 26.4655 43.0049 26.7521 43.0124C27.0388 43.0199 27.3107 43.1409 27.508 43.3489L40.9726 57.5369C41.17 57.7448 41.2767 58.0227 41.2692 58.3093C41.2617 58.5959 41.1406 58.8678 40.9327 59.0652L37.6909 62.1417C37.4829 62.3391 37.2051 62.4457 36.9185 62.4382C36.6318 62.4307 36.3599 62.3097 36.1626 62.1017ZM25.0105 47.2095L36.9867 59.8292L38.6601 58.2411L26.6839 45.6214L25.0105 47.2095Z" fill="white"/>
<path d="M15.1693 68.6483C14.7003 68.1059 14.404 67.4358 14.3181 66.724C14.2322 66.0121 14.3608 65.2908 14.6873 64.6524C15.5727 62.4951 16.1733 60.2317 16.4738 57.9193C17.1117 53.971 17.6154 50.852 24.5515 47.7719C24.7555 47.6812 24.9827 47.6558 25.2017 47.6993C25.4207 47.7428 25.6209 47.8531 25.7748 48.015L36.2113 59.0122C36.3652 59.1742 36.4651 59.38 36.4972 59.6012C36.5294 59.8224 36.4922 60.0481 36.3908 60.2473C35.5365 62.0714 34.3818 63.739 32.975 65.1805C30.7621 67.2806 28.4962 67.5471 25.8729 67.8562C23.5691 68.0569 21.3004 68.551 19.1218 69.3268C18.4715 69.6207 17.7482 69.7136 17.0448 69.5936C16.3413 69.4735 15.6897 69.146 15.1737 68.653L15.1693 68.6483ZM24.7385 50.0641C19.5353 52.5264 19.1987 54.6075 18.609 58.2657C18.2803 60.7497 17.6317 63.1807 16.6794 65.4983C16.3852 66.1903 16.4079 66.8126 16.7391 67.1615C17.0665 67.5066 17.6793 67.557 18.3765 67.3007C20.7149 66.4669 23.1496 65.9327 25.6223 65.7108C28.1345 65.4133 29.7974 65.2197 31.4889 63.6145C32.5487 62.5334 33.4342 61.2943 34.1138 59.9415L24.7385 50.0641Z" fill="white"/>
<path d="M22.5606 61.5816C22.2517 61.2291 22.0538 60.7931 21.9918 60.3285C21.9298 59.8639 22.0065 59.3914 22.2122 58.9702C22.6475 57.9084 22.9432 56.7947 23.0918 55.6568C23.4169 53.6671 23.6988 51.9509 26.9449 50.3473C27.1518 50.2462 27.3855 50.2138 27.6121 50.2548C27.8386 50.2958 28.0462 50.4081 28.2045 50.5753L33.7859 56.4565C33.9443 56.6234 34.0453 56.8364 34.0743 57.0647C34.1032 57.2929 34.0586 57.5244 33.947 57.7256C33.5392 58.4994 33.0175 59.2075 32.3993 59.8262C31.3118 60.7842 29.9166 61.3202 28.4675 61.3369C27.3343 61.4367 26.2184 61.6798 25.1465 62.0606C24.7171 62.2448 24.2427 62.2979 23.7831 62.2132C23.3235 62.1286 22.8992 61.9099 22.5636 61.5847L22.5606 61.5816ZM27.201 52.6588C25.6134 53.5961 25.4795 54.4177 25.2209 56.0031C25.0456 57.3111 24.7024 58.5911 24.1998 59.8113C24.1533 59.9022 24.1324 60.0039 24.1393 60.1057C24.1407 60.082 24.2385 60.0876 24.396 60.0291C25.629 59.5875 26.9133 59.3048 28.2178 59.1877C29.1985 59.2121 30.1551 58.8817 30.9117 58.2572C31.1924 57.9815 31.441 57.6751 31.6529 57.3436L27.201 52.6588Z" fill="white"/>
<path d="M37.0401 47.7927C36.8428 47.5847 36.7361 47.3068 36.7436 47.0202C36.7511 46.7336 36.8721 46.4617 37.0801 46.2643L41.6769 41.9019C41.8849 41.7045 42.1628 41.5978 42.4494 41.6053C42.736 41.6128 43.0079 41.7339 43.2053 41.9419C43.4027 42.1498 43.5093 42.4277 43.5018 42.7143C43.4943 43.0009 43.3733 43.2728 43.1653 43.4702L38.5685 47.8326C38.3605 48.03 38.0827 48.1367 37.796 48.1292C37.5094 48.1217 37.2375 48.0006 37.0401 47.7927Z" fill="white"/>
<path d="M33.5617 44.0885C33.3643 43.8805 33.2577 43.6026 33.2652 43.316C33.2727 43.0294 33.3937 42.7575 33.6017 42.5601L35.6233 40.6416C35.8312 40.4442 36.1091 40.3376 36.3957 40.3451C36.6824 40.3526 36.9543 40.4736 37.1516 40.6816C37.349 40.8896 37.4557 41.1674 37.4482 41.454C37.4407 41.7407 37.3196 42.0126 37.1116 42.2099L35.0901 44.1285C34.8821 44.3258 34.6042 44.4325 34.3176 44.425C34.031 44.4175 33.7591 44.2965 33.5617 44.0885Z" fill="white"/>
<path d="M40.5482 51.4503C40.3508 51.2424 40.2442 50.9645 40.2517 50.6779C40.2592 50.3913 40.3802 50.1194 40.5882 49.922L42.6098 48.0035C42.8178 47.8061 43.0956 47.6994 43.3822 47.7069C43.6689 47.7144 43.9408 47.8355 44.1381 48.0434C44.3355 48.2514 44.4422 48.5293 44.4347 48.8159C44.4272 49.1025 44.3061 49.3744 44.0982 49.5718L42.0766 51.4903C41.8686 51.6877 41.5907 51.7944 41.3041 51.7869C41.0175 51.7794 40.7456 51.6583 40.5482 51.4503Z" fill="white"/>
</svg>
