<svg id="Capa_1" enable-background="new 0 0 512 512" height="512" viewBox="0 0 512 512" width="512" xmlns="http://www.w3.org/2000/svg"><g><g><path d="m446.891 410.517 16.675 23.732c5.698 8.109-.103 19.274-10.013 19.274-3.134 0-6.149-1.203-8.423-3.36l-41.785-39.645 14.944-10.437z" fill="#434d59"/><path d="m446.891 410.517h-43.546l-19.583-18.58 21.686-11.528 28.388 11.528z" fill="#3b434d"/><path d="m65.102 410.517-16.675 23.732c-5.698 8.109.103 19.274 10.013 19.274 3.134 0 6.149-1.203 8.423-3.36l41.785-39.645-14.943-10.438z" fill="#434d59"/><path d="m65.102 410.517h43.546l19.584-18.58-21.686-11.528-28.389 11.528z" fill="#3b434d"/><path d="m20.645 382.646h470.71c17.24 0 20.645-18.534 20.645-29.935v-273.589c0-11.402-9.243-20.645-20.645-20.645h-470.71c-11.402 0-20.645 9.243-20.645 20.645v273.589c0 11.402 3.405 29.935 20.645 29.935z" fill="#a6aec4"/><path d="m477.752 340.268-221.752 9.29-221.752-9.29v-243.542c0-2.851 2.311-5.161 5.161-5.161h433.182c2.85 0 5.161 2.311 5.161 5.161z" fill="#434d59"/><path d="m39.409 358.849h433.182c2.85 0 5.161-2.311 5.161-5.161v-13.419h-443.504v13.419c0 2.85 2.311 5.161 5.161 5.161z" fill="#3b434d"/><path d="m491.355 373.356h-470.71c-11.402 0-20.645-9.243-20.645-20.645v18.581c0 11.402 9.243 20.645 20.645 20.645h470.71c11.402 0 20.645-9.243 20.645-20.645v-18.581c0 11.402-9.243 20.645-20.645 20.645z" fill="#959db0"/><path d="m232.198 190.625h47.597c15.484 0 15.246-15.716 15.463-24.077-.217-8.362-7.049-15.078-15.463-15.078h-47.597c-8.551 0-15.484 6.932-15.484 15.484 0-.137.017-.27.021-.406.217 8.361.747 24.077 15.463 24.077z" fill="#c4dbf9"/><path d="m279.795 181.625h-47.597c-8.414 0-15.246-6.716-15.463-15.078-.004.136-.02.269-.02.406v17.769c0 8.551 6.932 15.484 15.484 15.484h47.597c8.551 0 15.484-6.932 15.484-15.484v-17.769c0-.137-.017-.27-.021-.406-.218 8.362-7.05 15.078-15.464 15.078z" fill="#a3caf7"/><path d="m352.246 190.625h47.597c15.484 0 15.246-15.716 15.463-24.077-.217-8.362-7.049-15.078-15.463-15.078h-47.597c-8.551 0-15.484 6.932-15.484 15.484 0-.137.017-.27.021-.406.217 8.361.746 24.077 15.463 24.077z" fill="#b3e59f"/><path d="m399.843 181.625h-47.597c-8.414 0-15.246-6.716-15.463-15.078-.004.136-.021.269-.021.406v17.769c0 8.551 6.932 15.484 15.484 15.484h47.597c8.551 0 15.484-6.932 15.484-15.484v-17.769c0-.137-.017-.27-.02-.406-.218 8.362-7.05 15.078-15.464 15.078z" fill="#95d6a4"/><path d="m112.151 190.625h47.597c15.484 0 15.246-15.716 15.463-24.077-.217-8.362-7.049-15.078-15.463-15.078h-47.597c-8.552 0-15.484 6.932-15.484 15.484 0-.137.017-.27.021-.406.217 8.361.746 24.077 15.463 24.077z" fill="#df667c"/><path d="m159.747 181.625h-47.597c-8.415 0-15.246-6.716-15.463-15.078-.004.136-.021.269-.021.406v17.769c0 8.551 6.932 15.484 15.484 15.484h47.597c8.551 0 15.484-6.932 15.484-15.484v-17.769c0-.137-.017-.27-.02-.406-.218 8.362-7.049 15.078-15.464 15.078z" fill="#dc4857"/><path d="m232.198 285.717h47.597c15.484 0 15.246-15.716 15.463-24.077-.217-8.362-7.049-15.078-15.463-15.078h-47.597c-8.551 0-15.484 6.932-15.484 15.484 0-.137.017-.27.021-.406.217 8.361.747 24.077 15.463 24.077z" fill="#edc963"/><path d="m279.795 276.717h-47.597c-8.414 0-15.246-6.716-15.463-15.078-.004.136-.02.269-.02.406v17.769c0 8.551 6.932 15.484 15.484 15.484h47.597c8.551 0 15.484-6.932 15.484-15.484v-17.769c0-.137-.017-.27-.021-.406-.218 8.362-7.05 15.078-15.464 15.078z" fill="#e7b93e"/><path d="m352.246 285.717h47.597c15.484 0 15.246-15.716 15.463-24.077-.217-8.362-7.049-15.078-15.463-15.078h-47.597c-8.551 0-15.484 6.932-15.484 15.484 0-.137.017-.27.021-.406.217 8.361.746 24.077 15.463 24.077z" fill="#df667c"/><path d="m399.843 276.717h-47.597c-8.414 0-15.246-6.716-15.463-15.078-.004.136-.021.269-.021.406v17.769c0 8.551 6.932 15.484 15.484 15.484h47.597c8.551 0 15.484-6.932 15.484-15.484v-17.769c0-.137-.017-.27-.02-.406-.218 8.362-7.05 15.078-15.464 15.078z" fill="#dc4857"/><path d="m112.151 285.717h47.597c15.484 0 15.246-15.716 15.463-24.077-.217-8.362-7.049-15.078-15.463-15.078h-47.597c-8.552 0-15.484 6.932-15.484 15.484 0-.137.017-.27.021-.406.217 8.361.746 24.077 15.463 24.077z" fill="#a6aec4"/><path d="m159.747 276.717h-47.597c-8.415 0-15.246-6.716-15.463-15.078-.004.136-.021.269-.021.406v17.769c0 8.551 6.932 15.484 15.484 15.484h47.597c8.551 0 15.484-6.932 15.484-15.484v-17.769c0-.137-.017-.27-.02-.406-.218 8.362-7.049 15.078-15.464 15.078z" fill="#959db0"/></g></g></svg>